# xmcd
# Track frame offsets:
# 150
# 12447
# 28697
# 40962
# 58622
# 72087
# 86117
# 97300
# 113245
# 130585
#
# Disc length: 2007 seconds
# Revision: 2
# Processed by: cddbd v1.4PL0 Copyright (c) Steve Scherf et al.
# Submitted via: VisiTrax 2.9.5.180 - For more info visit www.synapsa.com
#
DISCID=8707d50a
DTITLE=Tim Ryan - Tim Ryan
DYEAR=1990
DGENRE=
TTITLE0=A Little Love Won't Hurt A Thing
TTITLE1=I Can See Through Blue
TTITLE2=Doin' Hard Time In The Dog House
TTITLE3=You Don't Owe Me A Thing
TTITLE4=Cowboy's Sweetheart
TTITLE5=Dance In Circles
TTITLE6=More Than Love Likes Me
TTITLE7=What In The World Was I Ever Thinkin' Of
TTITLE8=Breakin' All The Way
TTITLE9=Honky Tonk Highway
EXTD=
EXTT0=
EXTT1=
EXTT2=
EXTT3=
EXTT4=
EXTT5=
EXTT6=
EXTT7=
EXTT8=
EXTT9=
PLAYORDER=
